<mxfile host="app.diagrams.net" agent="Mozilla/5.0 (Macintosh; Intel Mac OS X 10_15_7) AppleWebKit/537.36 (KHTML, like Gecko) Chrome/128.0.0.0 Safari/537.36" version="24.7.6">
  <diagram name="Page-1" id="wywMWk7-2Vmteuhp_y6b">
    <mxGraphModel dx="1006" dy="751" grid="1" gridSize="10" guides="1" tooltips="1" connect="1" arrows="1" fold="1" page="1" pageScale="1" pageWidth="850" pageHeight="1100" math="0" shadow="0">
      <root>
        <mxCell id="0" />
        <mxCell id="1" parent="0" />
        <mxCell id="eWjxmdzpMONvRINoKe76-18" style="edgeStyle=orthogonalEdgeStyle;rounded=0;orthogonalLoop=1;jettySize=auto;html=1;exitX=0.5;exitY=0;exitDx=0;exitDy=0;entryX=0.5;entryY=0;entryDx=0;entryDy=0;" edge="1" parent="1" source="eWjxmdzpMONvRINoKe76-1" target="eWjxmdzpMONvRINoKe76-11">
          <mxGeometry relative="1" as="geometry" />
        </mxCell>
        <mxCell id="eWjxmdzpMONvRINoKe76-1" value="13" style="rounded=0;whiteSpace=wrap;html=1;" vertex="1" parent="1">
          <mxGeometry x="120" y="320" width="40" height="30" as="geometry" />
        </mxCell>
        <mxCell id="eWjxmdzpMONvRINoKe76-2" value=",&amp;nbsp;" style="rounded=0;whiteSpace=wrap;html=1;" vertex="1" parent="1">
          <mxGeometry x="160" y="320" width="40" height="30" as="geometry" />
        </mxCell>
        <mxCell id="eWjxmdzpMONvRINoKe76-3" value="29" style="rounded=0;whiteSpace=wrap;html=1;" vertex="1" parent="1">
          <mxGeometry x="200" y="320" width="40" height="30" as="geometry" />
        </mxCell>
        <mxCell id="eWjxmdzpMONvRINoKe76-4" value="" style="rounded=0;whiteSpace=wrap;html=1;" vertex="1" parent="1">
          <mxGeometry x="240" y="320" width="220" height="30" as="geometry" />
        </mxCell>
        <mxCell id="eWjxmdzpMONvRINoKe76-11" value="85" style="rounded=0;whiteSpace=wrap;html=1;" vertex="1" parent="1">
          <mxGeometry x="460" y="320" width="40" height="30" as="geometry" />
        </mxCell>
        <mxCell id="eWjxmdzpMONvRINoKe76-12" value=",&amp;nbsp;" style="rounded=0;whiteSpace=wrap;html=1;" vertex="1" parent="1">
          <mxGeometry x="500" y="320" width="40" height="30" as="geometry" />
        </mxCell>
        <mxCell id="eWjxmdzpMONvRINoKe76-13" value="173" style="rounded=0;whiteSpace=wrap;html=1;" vertex="1" parent="1">
          <mxGeometry x="540" y="320" width="40" height="30" as="geometry" />
        </mxCell>
      </root>
    </mxGraphModel>
  </diagram>
</mxfile>
